<?xml version="1.0" encoding="UTF-8" standalone="no"?>
<!-- Created with Inkscape (http://www.inkscape.org/) -->

<svg
   version="1.1"
   id="svg46"
   width="1023"
   height="1024"
   viewBox="0 0 1023 1024"
   sodipodi:docname="medium-logo.svg"
   inkscape:version="1.2.2 (b0a84865, 2022-12-01)"
   xmlns:inkscape="http://www.inkscape.org/namespaces/inkscape"
   xmlns:sodipodi="http://sodipodi.sourceforge.net/DTD/sodipodi-0.dtd"
   xmlns="http://www.w3.org/2000/svg"
   xmlns:svg="http://www.w3.org/2000/svg">
  <defs
     id="defs50" />
  <sodipodi:namedview
     id="namedview48"
     pagecolor="#ffffff"
     bordercolor="#000000"
     borderopacity="0.25"
     inkscape:showpageshadow="2"
     inkscape:pageopacity="0.0"
     inkscape:pagecheckerboard="0"
     inkscape:deskcolor="#d1d1d1"
     showgrid="false"
     inkscape:zoom="0.58007812"
     inkscape:cx="474.93603"
     inkscape:cy="512"
     inkscape:window-width="1456"
     inkscape:window-height="814"
     inkscape:window-x="0"
     inkscape:window-y="38"
     inkscape:window-maximized="0"
     inkscape:current-layer="g52" />
  <g
     inkscape:groupmode="layer"
     inkscape:label="Image"
     id="g52">
    <path
       style="fill:#000000;stroke-width:1.16453"
       d="M 487.29865,900.8394 C 423.65766,896.79987 370.72692,882.35938 316.98183,854.37383 238.72517,813.62485 174.01256,747.31503 137.43149,670.39213 c -12.04075,-25.31931 -24.0256,-59.63678 -29.75617,-85.20384 -7.37014,-32.88172 -10.644361,-85.0314 -7.66873,-122.14264 4.77974,-59.61145 24.18235,-117.68212 56.84219,-170.12488 50.41335,-80.94989 128.24775,-142.06716 220.55258,-173.18287 42.89322,-14.45914 82.16624,-20.923783 126.78311,-20.869383 59.05807,0.072 108.39829,10.882303 165.86829,36.341223 63.95845,28.33328 118.62854,72.69876 161.53469,131.08743 23.67088,32.21232 45.07358,75.10443 58.98109,118.20069 17.24356,53.43428 22.30465,120.13499 13.51529,178.12104 -4.27363,28.19481 -16.12375,68.60497 -27.62799,94.21424 -33.39757,74.34538 -81.79638,131.70248 -147.12084,174.35178 -57.19958,37.34465 -117.39762,59.83296 -180.31579,67.361 -15.41989,1.84496 -49.08077,3.09578 -61.72056,2.29348 z m 68.36658,-32.93774 c 17.68225,-2.59744 51.10626,-10.38014 68.46673,-15.94227 9.1683,-2.93742 9.64087,-3.23773 6.40496,-4.07014 -7.28861,-1.875 -57.35143,-5.78568 -74.63587,-5.83023 l -18.0394,-0.0465 -7.81348,4.94141 c -4.29726,2.71778 -15.92157,9.06913 -25.83168,14.11412 -9.91023,5.04499 -18.2949,9.46265 -18.63262,9.817 -0.33783,0.35436 11.43868,0.39413 26.1701,0.0884 18.82873,-0.39079 31.87156,-1.30318 43.91126,-3.07178 z m -103.88501,0.47135 c 0,-0.5752 -2.88701,-2.48761 -30.86028,-20.44228 -8.32645,-5.34435 -22.99416,-14.87669 -32.59509,-21.18297 -14.24266,-9.35525 -19.28046,-12.00365 -27.36666,-14.38676 -5.45074,-1.60642 -17.24717,-5.2342 -26.21412,-8.06169 -8.96695,-2.82752 -28.09449,-8.84216 -42.50567,-13.36591 -14.41116,-4.52372 -28.56031,-8.97509 -31.44255,-9.89192 -4.64021,-1.47605 -4.96093,-1.46996 -2.80048,0.0531 1.3419,0.94606 8.00097,6.03341 14.7978,11.30524 22.63409,17.55552 57.50621,38.10223 83.49487,49.19528 20.45233,8.7299 46.67367,16.7517 78.02409,23.86969 15.32569,3.47963 17.46809,3.8363 17.46809,2.90818 z m 46.80246,-19.43942 c 11.33027,-4.67765 19.97696,-8.838 19.2149,-9.24525 -0.76196,-0.40724 -5.05375,-1.10644 -9.53723,-1.55379 -21.65041,-2.16022 -78.71199,-11.20222 -95.13828,-15.07564 -6.37608,-1.50353 -11.16035,-2.30155 -10.63154,-1.77339 0.52871,0.52817 5.15367,3.54055 10.27764,6.69418 5.12398,3.15364 19.53514,12.02261 32.02481,19.70883 l 22.70851,13.97494 5.24043,-2.11252 c 2.88223,-1.16191 14.51062,-5.9397 25.84076,-10.61736 z m 172.61866,-18.28171 c 4.7915,-3.12786 8.49403,-5.90465 8.22805,-6.17066 -0.26598,-0.26598 -1.79211,-5.37309 -3.39137,-11.34909 -1.59938,-5.97602 -3.16848,-11.12615 -3.48709,-11.44475 -0.31862,-0.31858 -5.44772,1.54712 -11.39805,4.14601 -5.95032,2.59891 -16.05922,6.64054 -22.46418,8.98141 -6.40496,2.34089 -15.16905,5.5987 -19.47586,7.23958 l -7.83049,2.98346 3.25746,3.33186 c 3.11339,3.18438 4.13015,3.42853 22.96959,5.51517 10.84151,1.20082 20.87483,2.24422 22.29615,2.31868 1.42132,0.0744 6.50441,-2.4238 11.29579,-5.55167 z m -59.29704,-1.30021 c -2.42934,-2.68445 -5.57849,-2.93165 -11.18039,-0.87761 l -3.95861,1.45146 5.24042,0.70272 c 2.88224,0.38648 6.76283,0.78142 8.62342,0.87761 3.31136,0.17121 3.33838,0.12563 1.27516,-2.15418 z m -74.57135,-3.01238 c 1.08558,-1.65681 1.80096,-3.11725 1.58959,-3.2454 -0.21124,-0.12816 -4.57652,-2.0109 -9.70049,-4.18389 -19.56751,-8.29823 -47.91716,-21.36442 -65.99674,-30.41749 -11.78665,-5.902 -19.71319,-9.21443 -21.23874,-8.87541 -5.45435,1.2121 -68.93325,19.77601 -70.44179,20.60013 -5.81571,3.17709 128.0131,27.23603 161.3281,29.00261 1.48677,0.0789 3.27981,-1.07924 4.46007,-2.88055 z m 13.2889,1.83679 c -2.9747,-1.73786 -9.43626,-1.91855 -10.01585,-0.28007 -0.37126,1.04957 1.21788,1.44579 5.69599,1.42026 4.48126,-0.0255 5.68423,-0.34306 4.31986,-1.14019 z m 36.59074,-7.97979 c 6.275,-1.98002 12.20192,-4.04377 13.17093,-4.58608 1.39955,-0.78324 -0.84953,-3.96201 -10.93653,-15.45737 -12.9414,-14.74815 -17.41416,-19.29532 -18.14154,-18.44307 -1.88725,2.21146 -21.84313,32.71596 -21.52952,32.90991 4.50629,2.78663 21.9887,9.83716 23.6986,9.55753 1.28099,-0.20948 7.46317,-2.00088 13.73806,-3.98092 z m 128.53317,-14.35226 c 8.2178,-5.88376 21.25761,-15.70954 28.97723,-21.8351 7.7196,-6.12557 15.31822,-12.07809 16.8858,-13.22785 2.77976,-2.03887 2.45462,-2.07607 -13.16953,-1.50661 -15.69322,0.57199 -16.13014,0.65982 -21.43217,4.30775 -7.78984,5.3595 -9.27858,7.10743 -14.56722,17.10292 -2.61055,4.93394 -6.81512,12.7701 -9.34344,17.41371 -2.52845,4.6436 -4.07845,8.4429 -3.44471,8.4429 0.63386,0 7.87613,-4.81398 16.09404,-10.69772 z m -81.02488,-3.10893 c 32.60988,-13.14559 36.40581,-14.94185 35.59005,-16.8412 -0.32536,-0.75734 -6.85238,-16.05016 -14.50468,-33.98406 -7.65218,-17.93388 -16.26604,-37.8475 -19.14199,-44.25246 -2.87583,-6.40497 -5.92925,-13.61055 -6.78541,-16.01241 -0.85606,-2.40186 -1.89413,-4.36703 -2.30672,-4.36703 -2.11004,0 -6.96953,7.98953 -25.85312,42.50567 -6.86833,12.55423 -20.88099,36.78594 -25.91553,44.81498 l -2.54323,4.05609 11.06114,12.82971 c 12.59961,14.61408 20.17284,22.72829 21.21289,22.72829 0.39303,0 13.52704,-5.16491 29.1866,-11.47758 z m -75.80681,-6.31143 c 6.08273,-9.11069 11.06113,-16.92341 11.06311,-17.36159 0,-0.43818 -6.12734,-7.51275 -13.62103,-15.72127 -7.49357,-8.20852 -14.83016,-16.37883 -16.30354,-18.15625 l -2.67879,-3.23166 -18.63262,8.6134 c -17.62553,8.14787 -46.28284,19.56014 -53.27765,21.21693 -1.76136,0.41719 -3.20248,1.12671 -3.20248,1.57671 0,1.58965 81.18139,39.71609 84.42907,39.6517 0.64049,-0.0127 6.14131,-7.47729 12.22393,-16.58797 z m 130.46829,5.85248 c 2.02362,-4.0031 4.49663,-8.19545 5.49568,-9.31631 2.66843,-2.99399 0.70781,-2.49431 -5.71171,1.45567 -3.12282,1.92149 -6.19406,3.49362 -6.8249,3.49362 -0.63083,0 -1.14707,0.16867 -1.14707,0.37482 0,0.96201 3.75984,11.27057 4.11071,11.27057 0.21893,0 2.05367,-3.27527 4.07729,-7.27837 z M 342.78521,788.3102 c -1.22009,-1.43644 -6.46109,-7.33191 -11.64678,-13.10106 -5.18558,-5.76916 -14.88036,-16.83647 -21.54397,-24.59404 -16.19513,-18.85389 -45.44636,-50.80983 -59.19828,-64.67215 l -11.14429,-11.23356 -8.73404,5.16665 c -4.80372,2.84166 -16.07063,8.88017 -25.03758,13.41889 -8.96695,4.53872 -16.52493,8.45099 -16.79556,8.69393 -0.83684,0.75124 9.66031,15.38488 23.27947,32.45291 19.20954,24.07413 18.3005,23.29806 32.76582,27.97439 21.92244,7.08706 95.81906,28.27719 99.21975,28.45167 0.57971,0.0297 0.0559,-1.1212 -1.16454,-2.55763 z m 54.79878,-9.51418 c 18.00038,-4.79613 22.5988,-6.39144 20.37942,-7.07009 -19.35137,-5.91725 -102.81969,-42.25094 -115.609,-50.32443 -2.48233,-1.56702 -4.80082,-2.56162 -5.15228,-2.21022 -0.35134,0.35141 0.23477,0.97416 1.30243,1.3839 1.55197,0.59552 45.22451,48.46761 59.32929,65.03435 l 3.29261,3.86732 6.60597,-2.24358 c 3.63336,-1.23396 17.06655,-5.03073 29.85156,-8.43725 z m 295.28359,-1.91025 13.75367,-7.01209 10.62351,-21.73449 10.6235,-21.73451 -2.49374,-3.37291 c -6.96034,-9.41433 1.67635,-21.91261 13.16581,-19.05243 2.43307,0.6057 3.46148,-1.17561 13.87734,-24.03602 10.84815,-23.80921 11.15756,-24.71559 8.67057,-25.402 -1.41852,-0.39151 -5.17066,-2.55741 -8.33821,-4.81313 -5.47962,-3.90225 -41.08901,-26.23501 -46.15137,-28.94436 -2.09792,-1.12277 -3.28808,-0.42569 -9.53373,5.58398 -10.61791,10.21674 -28.26464,25.97919 -47.89538,42.7811 -9.60744,8.22301 -17.88441,15.32246 -18.3932,15.77657 -0.89541,0.79905 3.52005,11.46141 30.00074,72.44545 12.38918,28.53188 12.50703,28.74334 15.41069,27.63939 1.60927,-0.61186 9.11519,-4.26791 16.6798,-8.12455 z m -11.77407,-57.32891 c -4.9508,-3.80107 -5.96302,-11.54513 -2.14368,-16.40059 4.8899,-6.21644 17.36723,-2.94445 19.11486,5.01257 0.86537,3.94016 -1.74763,9.85519 -5.16043,11.68168 -3.01906,1.61577 -9.53478,1.45377 -11.81075,-0.29366 z m 32.30768,-45.24318 c -3.18326,-1.85045 -5.47915,-8.19379 -4.4136,-12.19468 1.24059,-4.65822 7.83723,-8.99096 12.32747,-8.09684 5.68224,1.13149 8.78993,4.95197 8.78993,10.80588 0,4.01166 -0.65424,5.69938 -3.08137,7.94878 -3.32871,3.08499 -9.71888,3.80592 -13.62243,1.53686 z m -129.36662,81.67205 c 5.60201,-9.92769 15.90061,-27.93044 22.88585,-40.00609 6.98515,-12.07567 12.5153,-22.14073 12.28927,-22.36681 -0.22603,-0.22608 -6.15459,3.53385 -13.17454,8.35538 -14.25419,9.79034 -37.23939,23.785 -54.36568,33.10086 l -11.32432,6.15984 3.75481,4.89173 c 2.06508,2.69046 8.97278,10.7308 15.35037,17.86745 9.18565,10.27885 11.88691,12.67146 12.99719,11.51184 0.77081,-0.80511 5.98503,-9.5865 11.58705,-19.5142 z m -144.29452,4.9493 c -6.42103,-10.1849 -24.8424,-43.62538 -29.4895,-53.53254 -14.98015,-31.93638 -26.56127,-66.62737 -35.86919,-107.44594 -2.99169,-13.11971 -5.68004,-24.09463 -5.97409,-24.38872 -0.29415,-0.29408 -3.53425,2.36626 -7.20033,5.91187 -3.66609,3.54562 -12.16815,11.10553 -18.89337,16.79982 -6.72521,5.69428 -13.27574,11.32442 -14.55673,12.5114 -11.51403,10.66906 -43.97275,35.14188 -69.01046,52.03171 -3.32323,2.24174 -6.05571,4.35776 -6.07225,4.70228 -0.0163,0.34453 4.18338,5.06091 9.33308,10.48085 5.89361,6.20289 9.10146,8.88523 8.65706,7.23881 -1.04598,-3.87473 1.69395,-10.22532 5.34117,-12.37981 10.77175,-6.36297 23.98483,3.59315 19.38212,14.60446 -2.15348,5.15191 -4.43375,6.8775 -10.09062,7.63625 -2.58714,0.347 -4.6995,0.95494 -4.69414,1.35098 0.0222,1.63162 28.4158,15.26872 79.17886,38.02866 25.06762,11.23919 75.38153,30.71591 79.49444,30.7726 l 3.21704,0.0444 -2.75309,-4.36702 z m -60.18197,-34.93617 c -11.01303,-9.9316 3.63698,-26.694 14.98483,-17.14546 6.50872,5.47676 5.46273,14.6623 -2.11597,18.58142 -5.023,2.59747 -8.87263,2.16791 -12.86886,-1.43596 z m 361.61003,24.35522 c 7.68595,-5.44647 18.23796,-13.08901 23.44881,-16.98339 9.50066,-7.10038 41.97883,-35.46434 49.00821,-42.79997 l 3.74912,-3.91252 -15.97678,-9.45935 c -8.78725,-5.20266 -17.93843,-10.61531 -20.33587,-12.02811 l -4.3591,-2.56876 -10.54408,21.92701 c -7.3069,15.19518 -10.08363,22.08048 -9.04428,22.42691 3.11013,1.03672 7.92702,7.02358 7.92702,9.8524 0,5.34758 -2.17373,8.95337 -6.48299,10.75391 -4.42024,1.8469 -7.92713,1.35059 -11.28333,-1.59692 -1.12483,-0.9878 -2.24302,-1.58087 -2.4849,-1.31793 -0.24176,0.26296 -2.58516,4.76669 -5.20734,10.00829 -2.62232,5.2416 -7.12605,13.51907 -10.0084,18.39438 -2.88236,4.87531 -4.59714,8.49127 -3.81061,8.03547 0.78653,-0.45581 7.71857,-5.28494 15.40452,-10.73142 z m -267.35179,3.78342 c 27.85414,-10.67568 52.49438,-21.33811 52.49438,-22.71556 0,-1.45197 -15.15402,-18.58133 -49.4929,-55.94427 -36.24906,-39.44137 -41.88799,-45.90686 -27.28805,-31.28766 12.38754,12.40393 34.37171,36.06977 59.76844,64.34077 10.7884,12.00931 20.12533,21.8351 20.7487,21.8351 1.91252,0 33.37639,-17.36601 46.60567,-25.72338 6.87193,-4.34117 19.69013,-13.03737 28.48496,-19.32489 8.79483,-6.28752 16.45272,-11.75466 17.01752,-12.14919 0.57482,-0.40146 0.4692,-1.68345 -0.23978,-2.91135 -0.69686,-1.20671 -6.15494,-14.24699 -12.12925,-28.97841 -5.97431,-14.73141 -14.75424,-36.08368 -19.51104,-47.44945 l -8.64867,-20.66507 -4.74631,-0.006 c -11.92151,-0.0139 -14.8728,-17.18263 -3.59342,-20.90514 4.60936,-1.52123 8.64554,-0.34689 12.30381,3.57981 3.03887,3.26185 3.08242,6.25884 0.16991,11.69305 l -2.27108,4.2373 15.45413,37.08658 c 8.49973,20.39762 17.69994,42.71496 20.44499,49.59408 3.63616,9.11266 5.40322,12.27351 6.51024,11.6454 4.41034,-2.50234 38.74572,-32.62724 52.82324,-46.3456 l 10.91966,-10.641 -13.24874,-9.83709 c -7.28675,-5.41009 -17.70308,-12.92823 -23.14729,-16.70669 -11.53127,-8.00311 -83.16729,-61.84545 -101.89716,-76.58696 -7.04546,-5.54522 -19.8845,-15.64574 -28.53119,-22.44562 -8.6467,-6.79989 -20.27881,-15.95337 -25.84927,-20.34106 l -10.12799,-7.97763 -9.05115,10.10002 c -24.28098,27.09461 -50.78565,53.53526 -80.15951,79.96573 -7.04546,6.33947 -13.54988,12.67367 -14.45438,14.07599 -1.45415,2.25468 -1.21077,4.61993 2.10374,20.44227 10.43485,49.81161 25.83996,95.2013 44.60848,131.43512 9.06721,17.50502 25.29565,45.41701 26.40591,45.41701 0.30115,0 8.18671,-2.92787 17.5234,-6.50639 z m -27.4476,-53.96385 c -11.11494,-6.77752 -4.21772,-24.05921 8.63961,-21.64716 5.94182,1.11468 10.74635,6.34102 10.74635,11.68968 0,3.31691 -0.89226,5.17424 -3.95942,8.24135 -4.65339,4.6534 -9.69048,5.21375 -15.42654,1.71613 z m 78.82391,-22.73834 c -3.0936,-3.72749 1.45008,-9.45346 5.4851,-6.91239 2.87163,1.80838 3.25127,5.26169 0.77744,7.0706 -2.71349,1.98418 -4.52248,1.93848 -6.26254,-0.15821 z m -2.87688,-38.57121 c -2.00475,-2.00469 -2.17931,-2.88362 -1.12086,-5.64197 1.0602,-2.76272 7.10985,-2.40339 8.0239,0.47661 1.39617,4.39901 -3.78929,8.27914 -6.90304,5.16536 z m 110.45848,-37.6995 c -1.33141,-0.5525 -3.25627,-2.72939 -4.27722,-4.83756 -1.54791,-3.19599 -1.61674,-4.42414 -0.41458,-7.38964 4.0399,-9.96543 17.56881,-6.6243 17.25928,4.26241 -0.17282,6.07905 -6.87521,10.32677 -12.56748,7.96479 z M 431.84506,585.37721 c -6.77773,-3.68333 -8.45501,-14.21076 -3.3067,-20.75566 9.87074,-12.54876 30.62457,1.72168 22.5018,15.47244 -3.8353,6.49259 -12.55396,8.89229 -19.1951,5.28322 z m 332.47723,174.10214 h 10.63526 l 8.14293,-9.54011 c 14.43422,-16.91097 34.45486,-43.28618 39.60875,-52.18045 1.38499,-2.38998 -3.00055,1.24301 -25.82481,21.39365 -10.78851,9.52477 -26.55917,22.54822 -35.04575,28.941 -8.48658,6.39279 -15.43013,11.89737 -15.43013,12.23241 0,0.33506 1.63768,0.28165 3.63918,-0.11866 2.00161,-0.40032 8.42508,-0.72784 14.27457,-0.72784 z M 193.25261,684.03862 c 5.44421,-2.66556 15.72371,-7.93141 22.84312,-11.70187 l 12.94467,-6.85539 -11.68231,-12.68361 c -19.65124,-21.33579 -43.41085,-49.42505 -71.28945,-84.28058 -6.3939,-7.99399 -12.28472,-15.33059 -13.09081,-16.30354 -3.81643,-4.6065 3.2727,29.26747 12.18108,58.20475 6.80055,22.09049 15.98585,44.54333 26.27141,64.21835 6.50767,12.44846 8.69852,15.71222 10.1153,15.06918 0.99463,-0.45144 6.26277,-3.00172 11.70699,-5.66729 z m 646.45528,-16.64895 c 14.68076,-29.84127 26.2246,-64.07608 32.46082,-96.2675 4.66724,-24.09221 5.70112,-37.58548 3.04841,-39.78704 -1.06159,-0.881 -2.11911,-1.39614 -2.35003,-1.14473 -0.23093,0.25138 -6.14644,12.00193 -13.14555,26.11231 -6.99911,14.11038 -15.71977,30.74257 -19.37921,36.96042 -6.44607,10.95284 -6.70844,11.73211 -8.4181,25.00221 -0.97053,7.53335 -2.76264,20.77159 -3.98238,29.41828 -3.52296,24.97425 -3.51981,25.04903 1.19284,28.99977 2.21763,1.85907 4.16031,3.25923 4.31718,3.11148 0.15687,-0.14777 2.97213,-5.7301 6.25602,-12.4052 z m -20.0933,-14.75733 c 4.07414,-25.43473 5.67887,-38.72034 4.67667,-38.72034 -0.49015,0 -1.57585,0.97523 -2.41281,2.1672 -0.83684,1.19195 -6.8129,7.87349 -13.28005,14.84786 -14.17512,15.28691 -19.10193,20.91513 -19.10193,21.82149 0,0.37487 4.84739,3.54563 10.77199,7.04613 5.92458,3.50049 11.82006,7.16928 13.10106,8.15283 1.28099,0.98356 2.59109,1.8047 2.91134,1.82476 0.32025,0.02 1.82041,-7.69291 3.33373,-17.13993 z m -563.70304,-4.62432 c 13.95176,-9.70211 32.65937,-23.59736 40.40274,-30.0095 37.27677,-30.86814 55.9647,-46.75605 63.0033,-53.56324 l 8.44547,-8.16795 -1.55804,-9.96834 c -5.63183,-36.03272 -6.585,-81.92396 -2.36891,-114.05505 1.93884,-14.77597 8.25926,-45.1082 11.96284,-57.41119 l 2.03318,-6.75374 -6.41999,-13.04341 c -7.58464,-15.40969 -24.50003,-53.39048 -31.48215,-70.68808 -2.71453,-6.72521 -5.10032,-12.42343 -5.30167,-12.66271 -0.72994,-0.86733 -16.49023,6.00032 -29.57999,12.88963 -26.8319,14.122 -50.53667,31.75698 -75.52686,56.18742 -43.52428,42.54939 -61.22923,70.86677 -89.18806,142.64787 l -11.0842,28.45728 20.57554,30.70587 c 21.33121,31.83382 39.44118,55.51365 62.70493,81.99027 23.00757,26.18517 28.99073,32.41758 30.57194,31.84557 0.83637,-0.30254 6.60084,-4.08286 12.80993,-8.4007 z m -44.20018,-55.2076 c -6.71125,-2.45933 -6.95416,-12.21856 -0.3786,-15.21457 9.54701,-4.3499 16.88942,9.94724 7.58068,14.761 -1.88037,0.9724 -3.57595,1.72661 -3.76787,1.67605 -0.19191,-0.0505 -1.73725,-0.60068 -3.43421,-1.22248 z m 133.80468,-29.05687 c -3.14355,-1.83095 -2.63395,-7.61426 0.8734,-9.91239 2.69697,-1.76709 3.12587,-1.76709 5.82271,0 6.96801,4.56556 0.51775,14.11403 -6.69611,9.91239 z m -149.3521,-12.63157 c -4.37156,-1.89127 -8.90196,-7.8337 -9.50985,-12.47393 -1.20681,-9.21181 8.15829,-16.87093 17.48112,-14.29678 4.75494,1.31291 9.54747,6.47504 10.64331,11.46414 0.92277,4.20141 -1.93023,10.82903 -5.73466,13.32178 -3.44505,2.25729 -9.93748,3.25776 -12.87992,1.98479 z m 83.8468,-37.35294 c -5.42454,-1.17613 -8.55284,-3.25635 -10.46874,-6.96129 -5.53948,-10.71217 3.54742,-23.81645 15.02232,-21.66375 2.32664,0.43649 6.05327,2.39418 8.28126,4.35043 3.6824,3.23313 4.05097,4.12703 4.05097,9.82277 0,5.20251 -0.54349,6.86572 -3.20248,9.79989 -3.67377,4.05398 -8.64542,5.74424 -13.68333,4.65195 z m -85.0642,-44.77919 c -8.0458,-8.04572 2.33571,-22.26108 12.34504,-16.90422 3.4128,1.82648 6.02578,7.74152 5.16043,11.68168 -1.67787,7.63943 -12.0071,10.72099 -17.50547,5.22254 z m 42.13336,-1.88425 c -5.74328,-4.51764 -3.0809,-14.28937 4.23042,-15.52674 8.0196,-1.35727 12.55734,9.76434 6.21118,15.22306 -3.89561,3.35089 -6.47238,3.42582 -10.4416,0.30368 z m 37.30856,-81.48366 c -6.50394,-5.116 -4.63137,-15.96682 3.20167,-18.55194 5.32078,-1.75602 10.68289,0.88524 12.98554,6.39639 4.15135,9.9354 -7.69784,18.83332 -16.18721,12.15555 z m 43.42635,-24.63027 c -10.95039,-3.98004 -8.24109,-19.57175 3.40104,-19.57175 4.95161,0 7.76328,1.96234 9.55178,6.6665 2.87979,7.57448 -5.27233,15.69673 -12.95282,12.90525 z m 486.95795,260.18177 21.40668,-21.86203 v -9.05584 c 0,-9.03909 -0.0116,-9.0592 -3.73433,-10.86613 -11.32561,-5.49016 -3.88269,-23.49977 8.29978,-20.08308 10.34704,2.90192 11.92755,17.22993 2.30428,20.8887 -2.43715,0.9266 -2.79385,1.80928 -2.79385,6.91372 0,3.21834 0.20786,5.85153 0.46174,5.85153 1.62639,0 17.94297,-29.36347 24.59016,-44.25248 2.43052,-5.44422 6.38843,-13.94538 8.7953,-18.89147 l 4.37622,-8.99287 -3.73071,-4.98159 c -2.05192,-2.73987 -7.25415,-10.22201 -11.56061,-16.62697 -4.30647,-6.40497 -8.8293,-12.94169 -10.0509,-14.52608 l -2.22101,-2.88069 -3.64164,4.04522 c -10.28893,11.42947 -26.83027,31.62637 -26.93367,32.88602 -0.0652,0.79048 -0.035,3.02159 0.0664,4.95801 0.3454,6.59154 -2.38428,29.0482 -5.17614,42.58343 -4.46484,21.64628 -11.26715,44.69239 -19.30375,65.40037 -2.42352,6.24485 -3.99111,11.35427 -3.4836,11.35427 0.50763,0 10.55597,-9.83792 22.32957,-21.86204 z m -32.37755,9.91097 c 11.32153,-33.13012 20.66264,-70.75025 22.51437,-90.67389 l 0.73006,-7.85503 -13.26131,13.05329 c -11.10539,10.93128 -64.90639,62.3944 -66.01467,63.14607 -0.80482,0.5459 49.70368,31.72663 51.58884,31.84768 0.64049,0.0411 2.63977,-4.24203 4.44271,-9.51812 z M 697.14831,584.8829 c 4.98108,-1.37535 11.09247,0.71132 13.10677,4.4752 0.71456,1.33521 2.06042,2.42766 2.99077,2.42766 0.93023,0 19.98104,-18.21047 42.33494,-40.46772 l 40.64357,-40.46772 -1.68113,-15.13901 c -3.59085,-32.33414 -13.55884,-72.95121 -25.37134,-103.3817 -6.13525,-15.80524 -17.88417,-42.82644 -19.44197,-44.71441 -1.48234,-1.7965 -25.16033,-17.50756 -40.58662,-26.93036 -20.55039,-12.55283 -67.02806,-33.81398 -97.82126,-44.74818 -12.92708,-4.59024 -12.79945,-4.57803 -14.02944,-1.34308 -2.30683,6.0676 -36.02384,72.70792 -44.41167,87.77804 -13.7759,24.75085 -31.76698,52.16933 -46.99403,71.61914 -2.0058,2.56199 -5.03837,6.53506 -6.73907,8.82905 l -3.09231,4.17091 9.59603,8.1288 c 5.2778,4.47085 15.62253,12.84273 22.98823,18.60419 7.36571,5.76147 24.65911,19.32685 38.42978,30.14531 34.6696,27.23696 81.22635,61.60481 112.95665,83.38376 l 7.56578,5.19301 2.6987,-3.20729 c 1.48432,-1.76401 4.57023,-3.72403 6.85762,-4.3556 z m -86.76967,-85.05738 c -4.59526,-2.88286 -7.64216,-9.3867 -6.60654,-14.10191 1.06963,-4.86952 6.45748,-10.08123 11.37591,-11.00395 9.72355,-1.82413 18.86984,7.70025 16.14109,16.80812 -2.77183,9.25132 -12.95165,13.2909 -20.91046,8.29774 z m 82.98795,-23.80162 c -9.20743,-4.0106 -10.68604,-16.63315 -2.73248,-23.32567 4.09417,-3.44504 9.8293,-3.92136 15.00276,-1.24604 10.02714,5.18522 9.35042,19.03113 -1.19668,24.48523 -4.04549,2.09201 -6.42663,2.11062 -11.0736,0.0866 z M 578.79495,432.57415 c -5.1334,-2.66817 -8.72274,-9.41827 -7.63692,-14.36187 1.06624,-4.85442 6.87217,-11.25272 11.04192,-12.16856 5.25486,-1.15415 13.13436,2.84461 15.52272,7.87758 2.36797,4.99026 2.42422,6.79117 0.36613,11.71706 -3.02943,7.25042 -12.28635,10.5781 -19.29385,6.93579 z m 84.54319,-55.83989 c -1.26527,-1.26532 -0.88528,-5.63615 0.62105,-7.14249 3.71185,-3.71179 9.27042,0.88845 6.75432,5.58978 -1.19423,2.23144 -5.73966,3.18839 -7.37537,1.55271 z m 14.94022,-34.45093 c -5.67957,-4.88563 -3.42584,-13.80925 3.8382,-15.19788 9.83196,-1.87949 14.91914,11.49264 6.10602,16.0501 -4.60901,2.38343 -6.35697,2.23361 -9.94422,-0.85222 z m -81.31265,-11.40471 c -3.94417,-3.10245 -5.07028,-9.01061 -2.62043,-13.74801 3.61378,-6.98829 11.47722,-8.1838 17.06642,-2.59466 9.68629,9.68631 -3.68192,24.80969 -14.44599,16.34267 z M 139.75497,546.07761 c -5.63973,-7.82463 -9.30012,-12.03711 -9.34554,-10.75512 -0.0442,1.25137 11.28567,15.70442 12.31104,15.70442 0.33097,0 -1.00348,-2.22719 -2.9655,-4.9493 z m 260.20328,-18.25179 c 57.22846,-51.68937 102.62894,-105.46947 135.49187,-160.49977 14.00218,-23.44732 51.61981,-98.33478 50.12384,-99.7844 -0.24967,-0.242 -8.83873,-2.54016 -19.08667,-5.10702 -32.65308,-8.1788 -67.20728,-11.8668 -101.89714,-10.87557 l -14.55674,0.41594 -2.40651,3.66747 c -1.32362,2.01711 -6.3733,9.43193 -11.22162,16.47739 -9.74299,14.15856 -22.02585,36.55205 -30.34054,55.3156 -15.34769,34.63429 -24.58038,69.93465 -28.93518,110.63119 -2.04191,19.08201 -1.76195,64.23215 0.54,87.0664 1.05006,10.41748 1.90926,19.22611 1.90926,19.57474 0,1.27996 3.27409,-1.43225 20.37943,-16.88197 z m 33.87515,-50.25421 c -4.91657,-5.84297 -3.38357,-12.87672 3.42642,-15.72214 3.67982,-1.53752 4.54648,-1.52534 7.99782,0.1125 7.11824,3.37779 7.95252,9.73713 2.09803,15.99018 -4.231,4.51897 -9.52499,4.37001 -13.52227,-0.3805 z m 20.64238,-109.91725 c -3.87966,-1.68739 -7.35372,-6.93379 -7.35372,-11.10543 0,-3.59022 2.95584,-8.69609 6.30447,-10.89019 7.88836,-5.16863 19.31539,1.05186 19.31539,10.51461 0,5.5542 -2.57352,9.4263 -7.68421,11.5617 -4.74189,1.98128 -5.86054,1.97276 -10.58193,-0.0806 z m 38.51537,-49.512 c -3.42444,-1.38359 -7.4393,-6.79348 -7.4393,-10.02406 0,-9.37619 11.28775,-15.07108 18.52187,-9.34459 0.89984,0.71229 2.34806,2.99823 3.2182,5.07983 2.25571,5.39656 -0.33504,11.38359 -5.93949,13.72525 -4.59807,1.92123 -4.94359,1.94452 -8.36128,0.56357 z m 384.60559,172.03739 c -0.66903,-17.43519 -3.50806,-47.09774 -4.61343,-48.20318 -0.33644,-0.33644 -14.73515,15.82942 -21.52883,24.17096 l -2.6739,3.28316 11.99172,17.21619 c 6.59537,9.46892 12.92009,18.65732 14.05493,20.41869 1.13484,1.76136 2.39569,3.20248 2.80188,3.20248 0.40619,0 0.39164,-9.03973 -0.0326,-20.0883 z m -744.81106,-9.06231 c 11.73471,-32.19966 42.59685,-97.16886 61.38622,-129.22667 13.55755,-23.13156 30.82242,-48.09454 43.08979,-62.30282 23.47326,-27.18708 63.96148,-61.74202 92.5346,-78.97425 l 12.52031,-7.55088 -5.53307,-1.23833 c -15.20562,-3.4031 -41.09564,-8.31099 -43.84209,-8.31099 -9.81881,0 -60.12817,44.99632 -85.28384,76.27729 -41.91769,52.12457 -69.32429,115.62183 -77.15465,178.75671 -2.48781,20.05807 -4.41558,47.61262 -3.2564,46.54441 0.36963,-0.34067 2.86232,-6.62919 5.53913,-13.97447 z M 284.8494,226.32002 c -4.19652,-4.63708 -0.44904,-11.84482 6.15844,-11.84482 5.89711,0 9.34694,8.0209 5.2233,12.14447 -2.50352,2.50351 -8.99967,2.33249 -11.38174,-0.29965 z m 547.73501,220.4906 c 0,-12.30723 0.30906,-25.46691 0.68661,-29.24371 l 0.68662,-6.86693 -21.31724,-15.72127 c -11.72446,-8.6467 -24.9775,-18.45485 -29.45107,-21.79588 -4.47369,-3.34104 -8.36069,-5.84787 -8.63773,-5.57076 -0.27717,0.27712 0.93908,3.53474 2.70277,7.23914 12.97075,27.24388 29.23773,83.32183 32.58846,112.34385 l 0.76463,6.62276 10.98847,-12.31521 10.98848,-12.31519 z m 19.78167,-5.14031 6.09065,-8.62399 -6.24007,-5.5912 c -3.43201,-3.07515 -6.63309,-5.61387 -7.11346,-5.64161 -0.48037,-0.0277 -0.87341,6.86695 -0.87341,15.3215 0,8.89131 0.43123,14.90551 1.02282,14.2656 0.56259,-0.60847 3.76367,-4.98711 7.11347,-9.7303 z m 14.56593,-29.40466 c -3.15311,-12.43232 -12.1919,-39.59541 -15.63381,-46.98268 l -3.25571,-6.98723 -0.72644,4.07588 c -0.39955,2.24174 -1.16337,11.91471 -1.69743,21.49549 l -0.9711,17.41961 5.32275,4.87636 c 9.73368,8.91742 18.12826,15.49711 18.48414,14.48784 0.19332,-0.54831 -0.49179,-4.32169 -1.5224,-8.38527 z m -32.65728,-27.22862 c 0.34855,-3.81927 1.19144,-11.76969 1.87316,-17.6676 l 1.23954,-10.72346 -3.40791,-3.83327 c -1.87432,-2.10831 -8.12603,-9.33572 -13.89259,-16.06093 -12.94991,-15.10242 -38.19664,-39.71905 -52.15271,-50.85101 -12.94781,-10.32772 -35.78756,-27.12084 -36.92695,-27.15085 -0.46453,-0.0122 -0.27948,1.41887 0.41109,3.18025 0.69069,1.76136 3.25046,8.70492 5.68842,15.43013 21.06965,58.12222 21.41144,58.95263 25.78045,62.62889 8.78831,7.39481 69.93393,52.81196 70.43153,52.31437 0.17724,-0.17731 0.60755,-3.44725 0.95597,-7.26652 z m -635.56475,-21.792 c 13.58249,-17.06204 42.44372,-45.11076 61.50361,-59.77218 17.04966,-13.11501 42.25424,-27.96843 61.10929,-36.01247 5.42826,-2.31583 10.05672,-4.39769 10.28532,-4.62638 0.22871,-0.22869 -2.85999,-7.81879 -6.86379,-16.8669 -4.82096,-10.89509 -7.77982,-16.25912 -8.76105,-15.88263 -0.81472,0.31269 -5.31159,3.32591 -9.99292,6.69604 -34.90588,25.1291 -65.27006,56.63937 -89.26061,92.62993 -7.2934,10.94141 -25.8063,40.90016 -25.8063,41.76128 0,1.46027 1.65516,-0.22468 7.78645,-7.92669 z m 184.93774,-12.22766 c 10.8012,-30.8263 34.19307,-76.32478 47.8205,-93.01357 2.15567,-2.63987 3.61578,-5.10335 3.24475,-5.47439 -0.84965,-0.84968 -9.92617,-0.0915 -33.59019,2.80591 -20.61653,2.52428 -32.02609,4.96611 -51.42499,11.00581 l -12.99508,4.04596 6.75444,16.58767 c 14.95652,36.73072 33.43741,76.5614 35.52333,76.5614 0.15441,0 2.25478,-5.63346 4.66724,-12.51879 z m 448.49323,-26.71109 c -5.44632,-10.76864 -12.39407,-23.50965 -15.43934,-28.31337 -19.01808,-29.99902 -48.85671,-63.95558 -73.81103,-83.99762 -12.18829,-9.78895 -32.37046,-24.30448 -33.79259,-24.30448 -0.49958,0 -0.2173,2.48919 0.62745,5.53155 2.39127,8.6127 13.47337,44.83758 14.56082,47.59576 0.53557,1.35844 9.5314,8.91523 19.99094,16.79288 38.32625,28.86581 56.91858,45.67309 86.08725,77.82182 7.02356,7.74119 11.08407,11.42372 11.3164,10.26303 0.19937,-0.99564 -4.09359,-10.62095 -9.5399,-21.38957 z m -95.5362,-5.896 c -0.80877,-3.50017 -4.04992,-12.64378 -17.70635,-49.95188 l -9.01329,-24.62316 -11.14964,-6.95903 c -18.03149,-11.25421 -63.55133,-32.88186 -69.20668,-32.88186 -1.00092,0 -6.05735,9.96175 -13.12005,25.84753 -6.32041,14.21614 -11.49166,26.3107 -11.49166,26.87679 0,0.5661 3.43538,2.2306 7.63424,3.69888 38.30716,13.39576 93.30716,39.84907 117.55367,56.53971 3.52273,2.42495 6.59281,4.46446 6.82233,4.53225 0.22966,0.0678 0.0839,-1.31786 -0.32257,-3.07923 z M 343.56534,259.26809 c 10.65868,-3.6403 27.47706,-7.90652 40.90198,-10.37539 12.51925,-2.30231 48.49885,-6.46858 55.86211,-6.46858 4.88501,0 5.67736,-0.387 7.7896,-3.80461 1.29322,-2.09254 3.69414,-5.06612 5.33533,-6.60796 3.34852,-3.14573 3.79011,-4.72642 1.32035,-4.72642 -0.91498,0 -14.67109,-3.46074 -30.56914,-7.69053 -15.89793,-4.22978 -37.00939,-9.4405 -46.91426,-11.5794 l -18.00877,-3.8889 -15.23136,8.50177 c -24.16476,13.48812 -25.15159,14.20034 -23.93349,17.27438 2.47454,6.24504 14.26083,32.31884 14.60938,32.31884 0.1048,0 4.08241,-1.32894 8.83827,-2.9532 z M 601.9765,230.77874 c 5.28561,-12.48968 10.61314,-24.68115 11.83904,-27.09214 l 2.22894,-4.38362 -3.23463,-1.27163 c -4.96489,-1.9519 -31.98418,-8.65436 -46.53521,-11.54369 l -13.02268,-2.58583 -28.31844,14.05553 c -15.57524,7.73055 -31.43545,16.0249 -35.24488,18.43187 l -6.92645,4.37632 6.34418,1.56442 c 25.90574,6.38813 95.56823,27.41623 101.12249,30.52453 1.02235,0.57218 1.9216,0.94863 1.99823,0.83654 0.0768,-0.11203 4.46391,-10.42263 9.74941,-22.9123 z m -75.82522,15.11942 c -2.0426,-1.19291 -50.72568,-12.79034 -53.69059,-12.79034 -0.97566,0 -3.8006,2.02245 -6.27781,4.49434 l -4.50408,4.49436 18.63262,0.8527 c 10.24794,0.46899 23.87305,1.51447 30.27801,2.3233 15.55404,1.96415 18.0238,2.06346 15.56185,0.62564 z m 178.60659,-21.7776 c -1.30289,-3.70372 -5.37924,-16.0615 -9.05859,-27.46174 -6.16041,-19.08753 -6.97594,-20.88046 -10.30618,-22.65794 -6.72707,-3.59052 -34.53556,-16.58809 -35.49048,-16.58809 -0.52136,0 -2.81608,4.06133 -5.09916,9.02518 -2.28308,4.96384 -6.26208,13.61055 -8.84211,19.21489 -2.58004,5.60434 -4.14728,10.18972 -3.48256,10.18972 3.54906,0 62.78798,28.00245 69.67727,32.93669 2.24174,1.60557 4.27724,2.72933 4.52319,2.49726 0.24606,-0.23207 -0.6186,-3.45226 -1.92138,-7.15597 z M 476.80196,212.15839 c 8.73662,-6.7403 23.41481,-15.34923 41.33636,-24.24431 l 15.70078,-7.79278 -10.46035,-1.35555 c -24.20401,-3.13663 -67.40712,-1.4361 -96.05384,3.78079 -13.30835,2.42363 -49.14494,12.38945 -48.04294,13.36032 0.48352,0.42604 5.33347,1.65233 10.7777,2.72507 5.44421,1.07277 24.83379,5.54286 43.08793,9.93356 18.25414,4.39069 34.18911,8.04061 35.41095,8.11093 1.22183,0.0703 4.93135,-1.9628 8.24341,-4.51803 z m -96.05861,-25.42682 c 17.40916,-6.01957 35.28809,-10.43693 56.1465,-13.8722 17.0358,-2.80567 81.22751,-2.83981 98.15489,-0.0522 l 11.6454,1.91776 12.80991,-5.65119 c 12.8366,-5.66302 56.59915,-22.14183 58.80153,-22.14183 7.56683,0 -19.50381,-8.09329 -42.65938,-12.75386 -29.21863,-5.8809 -71.05538,-8.33815 -101.68345,-5.9723 -48.22845,3.72538 -96.42416,17.3072 -140.96149,39.72375 -19.79273,9.9621 -27.92832,14.36094 -27.93298,15.10312 0,0.32024 10.60546,2.35122 23.57214,4.51327 12.96667,2.16205 24.62382,4.378 25.90482,4.92434 3.58712,1.52983 7.93504,0.57756 26.20211,-5.73869 z m 239.40333,1.83838 c 0.45638,-1.43798 4.16008,-9.49135 8.23025,-17.89643 4.07031,-8.40507 7.40042,-15.60198 7.40042,-15.99318 0,-0.39118 -1.1791,-0.22626 -2.62021,0.36648 -1.44112,0.59273 -14.93521,5.36697 -29.98687,10.60941 -15.05167,5.24244 -28.91375,10.07488 -30.80473,10.73877 -3.21355,1.12822 -2.64304,1.41158 8.73404,4.33853 22.5648,5.80517 35.296,9.31356 35.86628,9.88384 1.2124,1.21239 2.38602,0.457 3.18082,-2.04742 z M 866.3686,774.05121 c -0.82425,-0.99321 -1.12388,-2.97969 -0.70267,-4.65815 0.92359,-3.67989 5.82362,-4.06117 7.67733,-0.5974 2.62347,4.90193 -3.46228,9.48767 -6.97466,5.25555 z M 112.6083,660.40027 c -2.49025,-1.45048 -2.6668,-6.08685 -0.30628,-8.04593 2.17862,-1.80808 7.0875,-0.65873 8.0649,1.88829 0.85186,2.21976 -2.17955,7.43239 -4.29179,7.38005 -0.78583,-0.0195 -2.34597,-0.56955 -3.46683,-1.22241 z M 891.76405,335.00496 c -2.79442,-6.13306 2.39627,-10.76311 8.44023,-7.52853 2.5529,1.36628 3.06938,6.82809 0.85501,9.04243 -2.54813,2.54812 -7.837,1.68674 -9.29524,-1.5139 z m -732.09383,-85.452 c -0.85663,-0.54299 -1.38068,-2.2381 -1.16454,-3.76691 0.3142,-2.22158 1.0913,-2.77965 3.8707,-2.77965 3.86475,0 5.31076,2.95079 2.88095,5.87863 -1.58413,1.90877 -3.30496,2.11448 -5.58711,0.66793 z m 185.4379,-137.28387 c -0.70466,-0.47057 -1.92102,-2.06982 -2.7029,-3.55388 -2.04738,-3.88588 1.02131,-8.36482 5.73105,-8.36482 4.495,0 7.77935,4.49575 5.87883,8.04699 -2.02036,3.77514 -6.27909,5.62633 -8.90698,3.87171 z"
       id="path1617" />
  </g>
</svg>
